<?xml version="1.0" encoding="UTF-8" standalone="no"?>
<svg
   xmlns:dc="http://purl.org/dc/elements/1.1/"
   xmlns:cc="http://creativecommons.org/ns#"
   xmlns:rdf="http://www.w3.org/1999/02/22-rdf-syntax-ns#"
   xmlns:svg="http://www.w3.org/2000/svg"
   xmlns="http://www.w3.org/2000/svg"
   id="svg13"
   xml:space="preserve"
   viewBox="0 0 1024 768"
   y="0px"
   x="0px"
   version="1.1"><metadata
     id="metadata19"><rdf:RDF><cc:Work
         rdf:about=""><dc:format>image/svg+xml</dc:format><dc:type
           rdf:resource="http://purl.org/dc/dcmitype/StillImage" /></cc:Work></rdf:RDF></metadata><defs
     id="defs17" /><g
     style="stroke-width:0;stroke-miterlimit:2"
     transform="matrix(0.99248,0,0,0.99248,3.8519,2.8889)"
     stroke-miterlimit="2"
     id="logo-group"><path
       d="m 420.53,458.26 h 4.9773 c 5.3222,0 9.7574,-1.1827 13.059,-4.8787 l 0.0986,4.3859 h 7.392 l 2.7597,-15.572 0.4928,-2.8582 h -21.83 l -0.9856,5.6179 h 9.7574 c -1.1334,2.0698 -2.9568,2.9568 -6.4557,2.9568 h -7.392 c -5.3715,0 -6.6035,-1.9712 -5.6672,-7.392 0.93632,-5.273 2.8582,-7.392 8.2298,-7.392 h 7.392 c 3.1539,0 4.7309,0.7392 5.273,2.4147 h 12.221 c 0.19713,-9.8067 -6.1107,-12.764 -16.115,-12.764 h -6.9978 c -11.532,0 -19.416,3.9424 -21.831,17.741 -2.5133,14.193 4.0902,17.741 15.622,17.741 z"
       style="font-variant-ligatures:none;fill:#c5e00d"
       id="path46780" /><path
       d="m 448.12,457.77 h 11.827 l 2.0698,-11.778 h 6.505 l 5.2237,11.778 h 12.32 l -5.5194,-12.419 c 4.7802,-0.9856 8.3776,-3.696 9.6096,-10.743 1.8234,-10.349 -4.928,-11.334 -13.552,-11.334 h -22.373 l -1.7741,9.856 h 24.64 c 0.78848,0 1.3798,0.68992 1.232,1.4784 -0.14785,0.78848 -0.93633,1.4784 -1.7248,1.4784 h -24.64 z"
       style="font-variant-ligatures:none;fill:#c5e00d"
       id="path46782" /><path
       d="m 504.24,457.77 h 8.969 c 10.349,0 19.121,-7.392 20.845,-17.248 1.7248,-9.856 -4.2874,-17.248 -14.636,-17.248 h -8.969 c -10.349,0 -19.121,7.392 -20.845,17.248 -1.7248,9.856 4.2874,17.248 14.636,17.248 z m -2.809,-17.347 c 0.7392,-3.9424 4.6323,-7.2934 8.8211,-7.2934 h 5.7165 c 4.1888,0 6.9485,3.351 6.2586,7.2934 -0.7392,4.1888 -4.6323,7.4413 -8.8211,7.4906 l -5.7658,0.0493 c -4.1888,0.0493 -6.9485,-3.351 -6.2093,-7.5398 z"
       style="font-variant-ligatures:none;fill:#c5e00d"
       id="path46784" /><path
       d="m 565.85,441.6 c -0.68992,3.7946 -3.8438,6.3078 -10.497,6.3078 -6.8499,0 -8.9197,-2.5133 -8.2298,-6.3078 l 3.2525,-18.332 h -11.827 l -3.2525,18.332 c -1.9219,10.842 2.6118,16.657 18.234,16.657 15.129,0 22.225,-5.815 24.147,-16.657 l 3.2525,-18.332 h -11.827 z"
       style="font-variant-ligatures:none;fill:#c5e00d"
       id="path46786" /><path
       d="m 601.49,445.99 c 8.624,0 15.967,-0.68992 17.839,-11.384 1.8234,-10.349 -4.928,-11.334 -13.552,-11.334 h -22.373 l -1.7741,9.856 h 24.64 c 0.78848,0 1.3798,0.68992 1.232,1.4784 -0.14784,0.78848 -0.93632,1.4784 -1.7248,1.4784 h -24.64 l -3.8438,21.683 h 11.827 l 2.0698,-11.778 z"
       style="font-variant-ligatures:none;fill:#c5e00d"
       id="path46788" /><path
       d="m 103.93,410.54 h 40.32 l 44.784,-66.24 21.456,66.24 h 36 l -32.544,-100.8 h -41.76 z"
       style="font-variant-ligatures:normal;fill:#c5e00d"
       id="path46791" /><path
       d="m 265.78,309.74 -17.856,100.8 h 34.56 l 6.768,-38.016 14.112,38.016 h 41.76 l 29.376,-39.6 -7.056,39.6 h 34.56 L 419.86,309.74 H 378.1 L 328.276,376.988 303.22,309.74 Z"
       style="font-variant-ligatures:normal;fill:#9fd439"
       id="path46793" /><path
       d="m 627.94,363.31 c -2.016,11.088 -11.232,18.432 -30.672,18.432 -20.016,0 -26.064,-7.344 -24.048,-18.432 l 9.504,-53.568 h -80.352 l -68.256,100.8 h 40.32 l 48.672,-72 h 20.016 l -4.464,24.768 c -5.616,31.68 7.632,48.672 53.28,48.672 44.208,0 64.944,-16.992 70.56,-48.672 l 9.504,-53.568 h -34.56 z"
       style="font-variant-ligatures:normal;fill:#79c964"
       id="path46795" /><path
       d="M 798.6,309.74 H 674.76 l -5.184,28.8 h 44.784 l -12.816,72 h 34.56 l 12.816,-72 h 44.496 z"
       style="font-variant-ligatures:normal;fill:#53bd90"
       id="path46797" /><path
       d="m 832.09,410.54 h 26.208 c 30.24,0 55.872,-21.6 60.912,-50.4 5.04,-28.8 -12.528,-50.4 -42.768,-50.4 h -26.208 c -30.24,0 -55.872,21.6 -60.912,50.4 -5.04,28.8 12.528,50.4 42.768,50.4 z m -8.208,-50.688 c 2.16,-11.52 13.536,-21.312 25.776,-21.312 h 16.704 c 12.24,0 20.304,9.792 18.288,21.312 -2.16,12.24 -13.536,21.744 -25.776,21.888 l -16.848,0.144 c -12.24,0.144 -20.304,-9.792 -18.144,-22.032 z"
       style="font-variant-ligatures:normal;fill:#2db1bb"
       id="path46799" /></g></svg>